<svg version="1.1" id="Layer_1" x="0px" y="0px" width="100%" viewBox="0 0 450 450" enable-background="new 0 0 450 450" xmlns="http://www.w3.org/2000/svg" class="w-12 h-12 sm:w-14 sm:h-14 transition-fill duration-700 ease-in-out"><defs></defs><path opacity="1.000000" stroke="none" fill="white" fill-rule="nonzero" d=" M326.119507,181.089218 C326.111267,186.407806 326.148346,191.241470 326.081146,196.073685 C326.011688,201.064926 324.846863,201.709000 320.483795,199.192291 C295.996521,185.067749 271.520447,170.923752 247.036057,156.794250 C241.856781,153.805359 236.617035,150.918915 231.482315,147.855911 C227.326889,145.377060 223.342697,145.520691 219.219528,147.912766 C200.229034,158.930161 181.149399,169.795349 162.227509,180.928879 C151.133316,187.456635 151.396317,198.671005 162.524536,205.153259 C191.273163,221.899429 220.020599,238.647720 248.748047,255.430191 C254.621201,258.861298 254.591293,259.925537 248.849960,263.229370 C243.657745,266.217194 238.471619,269.215607 233.274994,272.195740 C229.377045,274.431122 225.446747,274.735840 221.442932,272.415863 C191.509842,255.071136 161.568970,237.739868 131.635727,220.395386 C127.845818,218.199356 125.997490,214.823639 125.986946,210.492676 C125.957314,198.326706 125.918755,186.160019 126.024605,173.994827 C126.061836,169.715088 128.040726,166.327454 131.840027,164.188187 C160.968582,147.786880 190.130447,131.444489 219.217957,114.970741 C224.385651,112.043999 228.768143,113.707329 233.260406,116.296524 C254.882812,128.758911 276.513519,141.206955 298.148163,153.648117 C304.351349,157.215286 310.439850,161.017868 316.830414,164.213531 C323.781769,167.689636 327.190460,172.775848 326.119507,181.089218 z"></path><path opacity="1.000000" stroke="none" fill="white" fill-rule="nonzero" d=" M308.224304,224.800781 C312.691132,227.444382 317.282593,229.393219 320.858856,232.507736 C323.338043,234.666870 325.746307,238.370605 325.890259,241.490143 C326.458069,253.794907 326.124451,266.141541 326.113220,278.472656 C326.108551,283.570190 323.230133,286.696808 319.025879,289.054108 C292.333893,304.020050 265.667847,319.032227 238.993332,334.029358 C237.110352,335.088013 235.194855,336.093536 233.352554,337.218872 C229.262665,339.717163 225.200500,339.666565 221.083908,337.302185 C191.655914,320.399841 162.235565,303.484131 132.779846,286.630219 C128.131958,283.970795 125.842201,280.206329 125.955826,274.821777 C126.078835,268.992126 125.947166,263.157562 125.988739,257.325592 C126.033730,251.014206 126.901260,250.516632 132.594910,253.788895 C153.499680,265.803314 174.374802,277.869293 195.260712,289.916565 C203.471069,294.652405 211.719147,299.324524 219.875000,304.152466 C224.461945,306.867828 228.804489,306.969666 233.474625,304.250793 C252.014679,293.457214 270.648560,282.825012 289.208771,272.065857 C301.174835,265.129272 301.123016,253.945389 289.162781,246.988083 C260.555603,230.347244 231.946426,213.709930 203.338226,197.070892 C197.917374,193.918015 197.874939,192.544846 203.185928,189.409790 C208.339218,186.367844 213.525528,183.381760 218.702850,180.380646 C222.957336,177.914459 227.149475,177.914658 231.459381,180.412399 C256.927795,195.172134 282.426910,209.878860 308.224304,224.800781 z"></path></svg>